<?xml version="1.0" encoding="utf-8" standalone="no"?>
<!DOCTYPE svg PUBLIC "-//W3C//DTD SVG 1.1//EN"
  "http://www.w3.org/Graphics/SVG/1.1/DTD/svg11.dtd">
<!-- Created with matplotlib (http://matplotlib.org/) -->
<svg height="864pt" version="1.1" viewBox="0 0 1440 864" width="1440pt" xmlns="http://www.w3.org/2000/svg" xmlns:xlink="http://www.w3.org/1999/xlink">
 <defs>
  <style type="text/css">
*{stroke-linecap:butt;stroke-linejoin:round;}
  </style>
 </defs>
 <g id="figure_1">
  <g id="patch_1">
   <path d="M 0 864 
L 1440 864 
L 1440 0 
L 0 0 
z
" style="fill:#ffffff;"/>
  </g>
  <g id="axes_1">
   <g id="patch_2">
    <path d="M 180 756 
L 1296 756 
L 1296 103.68 
L 180 103.68 
z
" style="fill:#eaeaf2;"/>
   </g>
   <g id="matplotlib.axis_1">
    <g id="xtick_1">
     <g id="line2d_1">
      <path clip-path="url(#p095905f7a2)" d="M 230.727273 756 
L 230.727273 103.68 
" style="fill:none;stroke:#ffffff;stroke-linecap:round;"/>
     </g>
     <g id="line2d_2"/>
     <g id="text_1">
      <!-- 10月 -->
      <defs>
       <path d="M 29.203125 71.40625 
C 26.796875 68.796875 23.90625 66.5 20.40625 64.296875 
C 16.796875 62.296875 13.40625 60.90625 10.203125 60.09375 
L 10.203125 49.296875 
C 16.796875 51.203125 22.203125 54.203125 26.59375 58.296875 
L 26.59375 0 
L 37.5 0 
L 37.5 71.40625 
z
" id=".PingFang-SC-Medium-31"/>
       <path d="M 30 72.796875 
C 21.59375 72.796875 15.09375 69.296875 10.5 62.203125 
C 6.296875 55.703125 4.203125 46.90625 4.203125 35.703125 
C 4.203125 24.59375 6.296875 15.796875 10.5 9.203125 
C 15.09375 2.203125 21.59375 -1.40625 30 -1.40625 
C 38.40625 -1.40625 44.90625 2.203125 49.5 9.203125 
C 53.703125 15.796875 55.796875 24.703125 55.796875 35.703125 
C 55.796875 46.796875 53.703125 55.59375 49.5 62.203125 
C 44.90625 69.296875 38.40625 72.796875 30 72.796875 
z
M 30 63.59375 
C 35.796875 63.59375 40 60.40625 42.40625 53.90625 
C 44.09375 49.5 45 43.40625 45 35.703125 
C 45 28.09375 44.09375 22 42.40625 17.5 
C 40 11.09375 35.796875 7.796875 30 7.796875 
C 24.09375 7.796875 20 11.09375 17.59375 17.5 
C 15.796875 22 15 28.09375 15 35.703125 
C 15 43.40625 15.796875 49.5 17.59375 53.90625 
C 20 60.40625 24.09375 63.59375 30 63.59375 
z
" id=".PingFang-SC-Medium-30"/>
       <path d="M 32.40625 45.5 
L 72.90625 45.5 
L 72.90625 29.796875 
L 32.40625 29.796875 
z
M 72.90625 54.40625 
L 32.40625 54.40625 
L 32.40625 69.40625 
L 72.90625 69.40625 
z
M 31.90625 21 
L 72.90625 21 
L 72.90625 3.5 
C 72.90625 0.90625 71.796875 -0.5 69.703125 -0.5 
C 65.90625 -0.5 61.796875 -0.296875 57.40625 -0.09375 
L 60 -9.40625 
L 72.796875 -9.40625 
C 79.203125 -9.40625 82.5 -6.203125 82.5 0.203125 
L 82.5 78.5 
L 22.90625 78.5 
L 22.90625 29.40625 
C 22.703125 15.796875 19.5 4.59375 13.203125 -4.203125 
L 20.5 -10.90625 
C 26.796875 -2.40625 30.59375 8.203125 31.90625 21 
z
" id=".PingFang-SC-Medium-6708"/>
      </defs>
      <g style="fill:#262626;" transform="translate(213.127273 774.6475)scale(0.16 -0.16)">
       <use xlink:href="#.PingFang-SC-Medium-31"/>
       <use x="59.999985" xlink:href="#.PingFang-SC-Medium-30"/>
       <use x="119.999969" xlink:href="#.PingFang-SC-Medium-6708"/>
      </g>
      <!-- 19日 -->
      <defs>
       <path d="M 29.203125 72.796875 
C 22.09375 72.796875 16.203125 70.5 11.40625 65.796875 
C 6.59375 61.203125 4.296875 55.40625 4.296875 48.203125 
C 4.296875 41.203125 6.296875 35.5 10.40625 31.09375 
C 14.59375 26.59375 20.296875 24.296875 27.296875 24.296875 
C 31 24.296875 34.296875 25.09375 37.203125 26.5 
C 40.203125 28.09375 42.796875 30.40625 44.796875 33.5 
L 45.203125 33.5 
C 45.203125 33 45.296875 32.59375 45.296875 32.203125 
C 45.296875 25.296875 43.796875 19.5 41 14.90625 
C 38 10.09375 34.09375 7.59375 29.203125 7.59375 
C 22 7.59375 17.59375 11.09375 16.203125 18 
L 5.59375 18 
C 7.40625 5.09375 15.203125 -1.40625 29.09375 -1.40625 
C 37.296875 -1.40625 43.796875 2.296875 48.703125 9.5 
C 53.40625 16.703125 55.796875 26.09375 55.796875 37.703125 
C 55.796875 48.703125 53.5 57.203125 49.09375 63.296875 
C 44.5 69.703125 37.90625 72.796875 29.203125 72.796875 
z
M 29.59375 63.796875 
C 33.796875 63.796875 37.296875 62.40625 40 59.59375 
C 42.59375 56.90625 44 53.203125 44 48.5 
C 44 43.90625 42.703125 40.09375 40.09375 37.296875 
C 37.5 34.5 33.90625 33.09375 29.5 33.09375 
C 25 33.09375 21.5 34.5 19 37.296875 
C 16.296875 40 15 43.59375 15 48.203125 
C 15 52.796875 16.296875 56.5 19 59.40625 
C 21.59375 62.40625 25.203125 63.796875 29.59375 63.796875 
z
" id=".PingFang-SC-Medium-39"/>
       <path d="M 83 78.59375 
L 18.90625 78.59375 
L 18.90625 -9.90625 
L 28.40625 -9.90625 
L 28.40625 -2.796875 
L 73.5 -2.796875 
L 73.5 -9.796875 
L 83 -9.796875 
z
M 28.40625 6.5 
L 28.40625 34.296875 
L 73.5 34.296875 
L 73.5 6.5 
z
M 28.40625 43.59375 
L 28.40625 69.40625 
L 73.5 69.40625 
L 73.5 43.59375 
z
" id=".PingFang-SC-Medium-65e5"/>
      </defs>
      <g style="fill:#262626;" transform="translate(213.127273 791.792)scale(0.16 -0.16)">
       <use xlink:href="#.PingFang-SC-Medium-31"/>
       <use x="59.999985" xlink:href="#.PingFang-SC-Medium-39"/>
       <use x="119.999969" xlink:href="#.PingFang-SC-Medium-65e5"/>
      </g>
     </g>
    </g>
    <g id="xtick_2">
     <g id="line2d_3">
      <path clip-path="url(#p095905f7a2)" d="M 271.309091 756 
L 271.309091 103.68 
" style="fill:none;stroke:#ffffff;stroke-linecap:round;"/>
     </g>
     <g id="line2d_4"/>
     <g id="text_2">
      <!-- 20日 -->
      <defs>
       <path d="M 31.09375 72.796875 
C 23.5 72.796875 17.296875 70.296875 12.703125 65.09375 
C 8.203125 60.296875 5.90625 53.90625 5.796875 45.90625 
L 16.703125 45.90625 
C 16.90625 51.703125 18.09375 56 20.5 59 
C 22.796875 62.09375 26.203125 63.59375 30.703125 63.59375 
C 34.90625 63.59375 38.203125 62.59375 40.40625 60.59375 
C 42.59375 58.59375 43.703125 55.59375 43.703125 51.59375 
C 43.703125 47.40625 42 43.5 38.796875 39.90625 
C 36.796875 37.796875 33.40625 35.09375 28.59375 31.703125 
C 20.5 26.09375 15.09375 21.796875 12.5 18.703125 
C 7.703125 13.296875 5.40625 7.09375 5.40625 0 
L 54.59375 0 
L 54.59375 9.59375 
L 18.90625 9.59375 
C 20.40625 13.5 25 18 32.703125 23.09375 
C 39.796875 27.90625 44.703125 31.703125 47.5 34.59375 
C 52.09375 39.703125 54.5 45.296875 54.5 51.5 
C 54.5 57.796875 52.296875 62.90625 48 66.90625 
C 43.59375 70.90625 37.90625 72.796875 31.09375 72.796875 
z
" id=".PingFang-SC-Medium-32"/>
      </defs>
      <g style="fill:#262626;" transform="translate(253.709091 774.6475)scale(0.16 -0.16)">
       <use xlink:href="#.PingFang-SC-Medium-32"/>
       <use x="59.999985" xlink:href="#.PingFang-SC-Medium-30"/>
       <use x="119.999969" xlink:href="#.PingFang-SC-Medium-65e5"/>
      </g>
     </g>
    </g>
    <g id="xtick_3">
     <g id="line2d_5">
      <path clip-path="url(#p095905f7a2)" d="M 311.890909 756 
L 311.890909 103.68 
" style="fill:none;stroke:#ffffff;stroke-linecap:round;"/>
     </g>
     <g id="line2d_6"/>
     <g id="text_3">
      <!-- 21日 -->
      <g style="fill:#262626;" transform="translate(294.290909 774.6475)scale(0.16 -0.16)">
       <use xlink:href="#.PingFang-SC-Medium-32"/>
       <use x="59.999985" xlink:href="#.PingFang-SC-Medium-31"/>
       <use x="119.999969" xlink:href="#.PingFang-SC-Medium-65e5"/>
      </g>
     </g>
    </g>
    <g id="xtick_4">
     <g id="line2d_7">
      <path clip-path="url(#p095905f7a2)" d="M 352.472727 756 
L 352.472727 103.68 
" style="fill:none;stroke:#ffffff;stroke-linecap:round;"/>
     </g>
     <g id="line2d_8"/>
     <g id="text_4">
      <!-- 22日 -->
      <g style="fill:#262626;" transform="translate(334.872727 774.6475)scale(0.16 -0.16)">
       <use xlink:href="#.PingFang-SC-Medium-32"/>
       <use x="59.999985" xlink:href="#.PingFang-SC-Medium-32"/>
       <use x="119.999969" xlink:href="#.PingFang-SC-Medium-65e5"/>
      </g>
     </g>
    </g>
    <g id="xtick_5">
     <g id="line2d_9">
      <path clip-path="url(#p095905f7a2)" d="M 393.054545 756 
L 393.054545 103.68 
" style="fill:none;stroke:#ffffff;stroke-linecap:round;"/>
     </g>
     <g id="line2d_10"/>
     <g id="text_5">
      <!-- 23日 -->
      <defs>
       <path d="M 30.703125 72.796875 
C 23.703125 72.796875 18 70.90625 13.59375 66.90625 
C 8.90625 62.90625 6.296875 57.40625 5.703125 50.296875 
L 16.40625 50.296875 
C 16.796875 54.703125 18.296875 58 20.703125 60.203125 
C 23.09375 62.40625 26.5 63.5 30.796875 63.5 
C 35 63.5 38.296875 62.59375 40.5 60.59375 
C 42.5 58.703125 43.59375 56 43.59375 52.40625 
C 43.59375 48.796875 42.40625 46 40.203125 44.09375 
C 38 42.203125 34.703125 41.203125 30.296875 41.203125 
L 25.203125 41.203125 
L 25.203125 33 
L 30.40625 33 
C 35.09375 33 38.703125 32 41.09375 30 
C 43.703125 28 45 24.90625 45 20.703125 
C 45 17.09375 43.703125 14.203125 41.296875 11.796875 
C 38.5 9.203125 34.796875 7.796875 30.203125 7.796875 
C 26 7.796875 22.59375 9 20 11.40625 
C 17 14 15.5 17.703125 15.296875 22.5 
L 4.296875 22.5 
C 4.90625 14.5 7.703125 8.40625 12.703125 4.203125 
C 17.09375 0.5 23 -1.40625 30.296875 -1.40625 
C 37.90625 -1.40625 44.203125 0.796875 49 5 
C 53.5 9.203125 55.796875 14.59375 55.796875 21.203125 
C 55.796875 25.40625 54.59375 28.90625 52.203125 31.59375 
C 50 34.203125 46.796875 36.203125 42.59375 37.5 
C 50.40625 40.09375 54.40625 45.40625 54.40625 53.203125 
C 54.40625 59.296875 52.203125 64.09375 48 67.59375 
C 43.59375 71.09375 37.90625 72.796875 30.703125 72.796875 
z
" id=".PingFang-SC-Medium-33"/>
      </defs>
      <g style="fill:#262626;" transform="translate(375.454545 774.6475)scale(0.16 -0.16)">
       <use xlink:href="#.PingFang-SC-Medium-32"/>
       <use x="59.999985" xlink:href="#.PingFang-SC-Medium-33"/>
       <use x="119.999969" xlink:href="#.PingFang-SC-Medium-65e5"/>
      </g>
     </g>
    </g>
    <g id="xtick_6">
     <g id="line2d_11">
      <path clip-path="url(#p095905f7a2)" d="M 433.636364 756 
L 433.636364 103.68 
" style="fill:none;stroke:#ffffff;stroke-linecap:round;"/>
     </g>
     <g id="line2d_12"/>
     <g id="text_6">
      <!-- 24日 -->
      <defs>
       <path d="M 37.203125 71.40625 
L 2 25.796875 
L 2 15.5 
L 36.796875 15.5 
L 36.796875 0 
L 47.203125 0 
L 47.203125 15.5 
L 58 15.5 
L 58 24.203125 
L 47.203125 24.203125 
L 47.203125 71.40625 
z
M 36.5 57.59375 
L 36.796875 57.59375 
L 36.796875 24.203125 
L 10.90625 24.203125 
z
" id=".PingFang-SC-Medium-34"/>
      </defs>
      <g style="fill:#262626;" transform="translate(416.036364 774.6475)scale(0.16 -0.16)">
       <use xlink:href="#.PingFang-SC-Medium-32"/>
       <use x="59.999985" xlink:href="#.PingFang-SC-Medium-34"/>
       <use x="119.999969" xlink:href="#.PingFang-SC-Medium-65e5"/>
      </g>
     </g>
    </g>
    <g id="xtick_7">
     <g id="line2d_13">
      <path clip-path="url(#p095905f7a2)" d="M 474.218182 756 
L 474.218182 103.68 
" style="fill:none;stroke:#ffffff;stroke-linecap:round;"/>
     </g>
     <g id="line2d_14"/>
     <g id="text_7">
      <!-- 25日 -->
      <defs>
       <path d="M 9.5 71.40625 
L 5.59375 31.40625 
L 15.796875 31.40625 
C 17.203125 34 19.09375 35.90625 21.703125 37.09375 
C 24.09375 38.296875 26.796875 38.796875 30 38.796875 
C 34.796875 38.796875 38.40625 37.40625 41 34.59375 
C 43.59375 31.796875 44.90625 27.90625 44.90625 22.90625 
C 44.90625 18.296875 43.40625 14.703125 40.40625 11.90625 
C 37.40625 9.203125 33.703125 7.796875 29.296875 7.796875 
C 25.296875 7.796875 22.09375 8.703125 19.703125 10.5 
C 17 12.5 15.40625 15.59375 15 19.59375 
L 4.296875 19.59375 
C 4.796875 13 7.59375 7.703125 12.703125 3.90625 
C 17.296875 0.40625 22.796875 -1.40625 29.203125 -1.40625 
C 36.296875 -1.40625 42.40625 0.703125 47.5 4.90625 
C 52.90625 9.59375 55.703125 15.59375 55.703125 23 
C 55.703125 30.703125 53.5 36.703125 49.296875 41.09375 
C 45.09375 45.5 39.59375 47.703125 32.90625 47.703125 
C 29.703125 47.703125 26.703125 47.203125 24.09375 46.09375 
C 21.203125 45.09375 18.703125 43.5 16.5 41.203125 
L 16.203125 41.203125 
L 18.296875 61.796875 
L 52.5 61.796875 
L 52.5 71.40625 
z
" id=".PingFang-SC-Medium-35"/>
      </defs>
      <g style="fill:#262626;" transform="translate(456.618182 774.6475)scale(0.16 -0.16)">
       <use xlink:href="#.PingFang-SC-Medium-32"/>
       <use x="59.999985" xlink:href="#.PingFang-SC-Medium-35"/>
       <use x="119.999969" xlink:href="#.PingFang-SC-Medium-65e5"/>
      </g>
     </g>
    </g>
    <g id="xtick_8">
     <g id="line2d_15">
      <path clip-path="url(#p095905f7a2)" d="M 514.8 756 
L 514.8 103.68 
" style="fill:none;stroke:#ffffff;stroke-linecap:round;"/>
     </g>
     <g id="line2d_16"/>
     <g id="text_8">
      <!-- 26日 -->
      <defs>
       <path d="M 31 72.796875 
C 22.796875 72.796875 16.203125 69.203125 11.40625 61.90625 
C 6.59375 54.703125 4.296875 45.296875 4.296875 33.703125 
C 4.296875 22.796875 6.5 14.296875 10.90625 8.203125 
C 15.5 1.796875 22.09375 -1.40625 30.90625 -1.40625 
C 37.90625 -1.40625 43.90625 1 48.703125 5.59375 
C 53.40625 10.203125 55.796875 16.09375 55.796875 23.203125 
C 55.796875 30.203125 53.703125 36 49.59375 40.5 
C 45.40625 44.90625 39.796875 47.09375 32.796875 47.09375 
C 29 47.09375 25.703125 46.40625 22.90625 44.90625 
C 19.796875 43.40625 17.296875 41.09375 15.296875 37.90625 
L 14.90625 37.90625 
C 14.796875 38.5 14.796875 38.90625 14.796875 39.203125 
C 14.796875 46.203125 16.203125 51.90625 19.09375 56.5 
C 22 61.40625 25.90625 63.796875 30.90625 63.796875 
C 38.09375 63.796875 42.40625 60.40625 43.90625 53.40625 
L 54.5 53.40625 
C 52.703125 66.40625 44.796875 72.796875 31 72.796875 
z
M 30.59375 38.296875 
C 35 38.296875 38.59375 36.90625 41.203125 34.09375 
C 43.796875 31.5 45.09375 27.796875 45.09375 23.203125 
C 45.09375 18.703125 43.703125 15 41 12 
C 38.40625 9.09375 34.90625 7.59375 30.5 7.59375 
C 26.203125 7.59375 22.703125 9 20.09375 11.796875 
C 17.40625 14.59375 16.09375 18.296875 16.09375 22.90625 
C 16.09375 27.59375 17.40625 31.296875 20 34.09375 
C 22.59375 36.90625 26.09375 38.296875 30.59375 38.296875 
z
" id=".PingFang-SC-Medium-36"/>
      </defs>
      <g style="fill:#262626;" transform="translate(497.2 774.6475)scale(0.16 -0.16)">
       <use xlink:href="#.PingFang-SC-Medium-32"/>
       <use x="59.999985" xlink:href="#.PingFang-SC-Medium-36"/>
       <use x="119.999969" xlink:href="#.PingFang-SC-Medium-65e5"/>
      </g>
     </g>
    </g>
    <g id="xtick_9">
     <g id="line2d_17">
      <path clip-path="url(#p095905f7a2)" d="M 555.381818 756 
L 555.381818 103.68 
" style="fill:none;stroke:#ffffff;stroke-linecap:round;"/>
     </g>
     <g id="line2d_18"/>
     <g id="text_9">
      <!-- 28日 -->
      <defs>
       <path d="M 30 72.796875 
C 22.40625 72.796875 16.296875 70.796875 11.90625 66.796875 
C 7.90625 63.203125 5.90625 58.703125 5.90625 53.40625 
C 5.90625 49.703125 6.703125 46.59375 8.296875 44.09375 
C 10.09375 41.40625 12.796875 39.40625 16.40625 38 
L 16.40625 37.703125 
C 12.90625 36.90625 10 34.90625 7.59375 31.703125 
C 4.796875 28.296875 3.40625 24.40625 3.40625 19.90625 
C 3.40625 13.59375 5.703125 8.5 10.296875 4.5 
C 14.90625 0.59375 21.5 -1.40625 30 -1.40625 
C 38.40625 -1.40625 45 0.59375 49.703125 4.5 
C 54.296875 8.5 56.59375 13.59375 56.59375 19.90625 
C 56.59375 24.40625 55.203125 28.296875 52.40625 31.703125 
C 50 34.90625 47 36.90625 43.59375 37.703125 
L 43.59375 38 
C 47.203125 39.40625 49.90625 41.40625 51.703125 44.09375 
C 53.296875 46.59375 54.09375 49.703125 54.09375 53.40625 
C 54.09375 58.703125 52.09375 63.203125 48.09375 66.796875 
C 43.59375 70.796875 37.59375 72.796875 30 72.796875 
z
M 30 64.09375 
C 34.40625 64.09375 37.90625 63 40.5 60.59375 
C 42.703125 58.59375 43.90625 56 43.90625 53 
C 43.90625 49.59375 42.90625 46.90625 41.09375 44.90625 
C 38.703125 42.5 35 41.296875 30 41.296875 
C 24.90625 41.296875 21.203125 42.5 18.90625 44.90625 
C 17 46.90625 16.09375 49.59375 16.09375 53 
C 16.09375 56 17.203125 58.59375 19.5 60.59375 
C 22.09375 63 25.59375 64.09375 30 64.09375 
z
M 30 33.203125 
C 35.203125 33.203125 39.09375 31.90625 41.90625 29.296875 
C 44.5 27 45.796875 23.90625 45.796875 19.90625 
C 45.796875 16.203125 44.5 13.203125 41.90625 10.90625 
C 39 8.59375 35 7.40625 30 7.40625 
C 24.90625 7.40625 21 8.59375 18.296875 10.90625 
C 15.5 13.203125 14.203125 16.203125 14.203125 19.90625 
C 14.203125 23.90625 15.5 27 18.203125 29.40625 
C 20.796875 32 24.796875 33.203125 30 33.203125 
z
" id=".PingFang-SC-Medium-38"/>
      </defs>
      <g style="fill:#262626;" transform="translate(537.781818 774.6475)scale(0.16 -0.16)">
       <use xlink:href="#.PingFang-SC-Medium-32"/>
       <use x="59.999985" xlink:href="#.PingFang-SC-Medium-38"/>
       <use x="119.999969" xlink:href="#.PingFang-SC-Medium-65e5"/>
      </g>
     </g>
    </g>
    <g id="xtick_10">
     <g id="line2d_19">
      <path clip-path="url(#p095905f7a2)" d="M 595.963636 756 
L 595.963636 103.68 
" style="fill:none;stroke:#ffffff;stroke-linecap:round;"/>
     </g>
     <g id="line2d_20"/>
     <g id="text_10">
      <!-- 29日 -->
      <g style="fill:#262626;" transform="translate(578.363636 774.6475)scale(0.16 -0.16)">
       <use xlink:href="#.PingFang-SC-Medium-32"/>
       <use x="59.999985" xlink:href="#.PingFang-SC-Medium-39"/>
       <use x="119.999969" xlink:href="#.PingFang-SC-Medium-65e5"/>
      </g>
     </g>
    </g>
    <g id="xtick_11">
     <g id="line2d_21">
      <path clip-path="url(#p095905f7a2)" d="M 636.545455 756 
L 636.545455 103.68 
" style="fill:none;stroke:#ffffff;stroke-linecap:round;"/>
     </g>
     <g id="line2d_22"/>
     <g id="text_11">
      <!-- 30日 -->
      <g style="fill:#262626;" transform="translate(618.945455 774.6475)scale(0.16 -0.16)">
       <use xlink:href="#.PingFang-SC-Medium-33"/>
       <use x="59.999985" xlink:href="#.PingFang-SC-Medium-30"/>
       <use x="119.999969" xlink:href="#.PingFang-SC-Medium-65e5"/>
      </g>
     </g>
    </g>
    <g id="xtick_12">
     <g id="line2d_23">
      <path clip-path="url(#p095905f7a2)" d="M 677.127273 756 
L 677.127273 103.68 
" style="fill:none;stroke:#ffffff;stroke-linecap:round;"/>
     </g>
     <g id="line2d_24"/>
     <g id="text_12">
      <!-- 31日 -->
      <g style="fill:#262626;" transform="translate(659.527273 774.6475)scale(0.16 -0.16)">
       <use xlink:href="#.PingFang-SC-Medium-33"/>
       <use x="59.999985" xlink:href="#.PingFang-SC-Medium-31"/>
       <use x="119.999969" xlink:href="#.PingFang-SC-Medium-65e5"/>
      </g>
     </g>
    </g>
    <g id="xtick_13">
     <g id="line2d_25">
      <path clip-path="url(#p095905f7a2)" d="M 717.709091 756 
L 717.709091 103.68 
" style="fill:none;stroke:#ffffff;stroke-linecap:round;"/>
     </g>
     <g id="line2d_26"/>
     <g id="text_13">
      <!-- 11月 -->
      <g style="fill:#262626;" transform="translate(700.109091 774.6475)scale(0.16 -0.16)">
       <use xlink:href="#.PingFang-SC-Medium-31"/>
       <use x="59.999985" xlink:href="#.PingFang-SC-Medium-31"/>
       <use x="119.999969" xlink:href="#.PingFang-SC-Medium-6708"/>
      </g>
      <!-- 1日 -->
      <g style="fill:#262626;" transform="translate(704.909091 791.792)scale(0.16 -0.16)">
       <use xlink:href="#.PingFang-SC-Medium-31"/>
       <use x="59.999985" xlink:href="#.PingFang-SC-Medium-65e5"/>
      </g>
     </g>
    </g>
    <g id="xtick_14">
     <g id="line2d_27">
      <path clip-path="url(#p095905f7a2)" d="M 758.290909 756 
L 758.290909 103.68 
" style="fill:none;stroke:#ffffff;stroke-linecap:round;"/>
     </g>
     <g id="line2d_28"/>
     <g id="text_14">
      <!-- 2日 -->
      <g style="fill:#262626;" transform="translate(745.490909 774.6475)scale(0.16 -0.16)">
       <use xlink:href="#.PingFang-SC-Medium-32"/>
       <use x="59.999985" xlink:href="#.PingFang-SC-Medium-65e5"/>
      </g>
     </g>
    </g>
    <g id="xtick_15">
     <g id="line2d_29">
      <path clip-path="url(#p095905f7a2)" d="M 798.872727 756 
L 798.872727 103.68 
" style="fill:none;stroke:#ffffff;stroke-linecap:round;"/>
     </g>
     <g id="line2d_30"/>
     <g id="text_15">
      <!-- 4日 -->
      <g style="fill:#262626;" transform="translate(786.072727 774.6475)scale(0.16 -0.16)">
       <use xlink:href="#.PingFang-SC-Medium-34"/>
       <use x="59.999985" xlink:href="#.PingFang-SC-Medium-65e5"/>
      </g>
     </g>
    </g>
    <g id="xtick_16">
     <g id="line2d_31">
      <path clip-path="url(#p095905f7a2)" d="M 839.454545 756 
L 839.454545 103.68 
" style="fill:none;stroke:#ffffff;stroke-linecap:round;"/>
     </g>
     <g id="line2d_32"/>
     <g id="text_16">
      <!-- 11日 -->
      <g style="fill:#262626;" transform="translate(821.854545 774.6475)scale(0.16 -0.16)">
       <use xlink:href="#.PingFang-SC-Medium-31"/>
       <use x="59.999985" xlink:href="#.PingFang-SC-Medium-31"/>
       <use x="119.999969" xlink:href="#.PingFang-SC-Medium-65e5"/>
      </g>
     </g>
    </g>
    <g id="xtick_17">
     <g id="line2d_33">
      <path clip-path="url(#p095905f7a2)" d="M 880.036364 756 
L 880.036364 103.68 
" style="fill:none;stroke:#ffffff;stroke-linecap:round;"/>
     </g>
     <g id="line2d_34"/>
     <g id="text_17">
      <!-- 13日 -->
      <g style="fill:#262626;" transform="translate(862.436364 774.6475)scale(0.16 -0.16)">
       <use xlink:href="#.PingFang-SC-Medium-31"/>
       <use x="59.999985" xlink:href="#.PingFang-SC-Medium-33"/>
       <use x="119.999969" xlink:href="#.PingFang-SC-Medium-65e5"/>
      </g>
     </g>
    </g>
    <g id="xtick_18">
     <g id="line2d_35">
      <path clip-path="url(#p095905f7a2)" d="M 920.618182 756 
L 920.618182 103.68 
" style="fill:none;stroke:#ffffff;stroke-linecap:round;"/>
     </g>
     <g id="line2d_36"/>
     <g id="text_18">
      <!-- 20日 -->
      <g style="fill:#262626;" transform="translate(903.018182 774.6475)scale(0.16 -0.16)">
       <use xlink:href="#.PingFang-SC-Medium-32"/>
       <use x="59.999985" xlink:href="#.PingFang-SC-Medium-30"/>
       <use x="119.999969" xlink:href="#.PingFang-SC-Medium-65e5"/>
      </g>
     </g>
    </g>
    <g id="xtick_19">
     <g id="line2d_37">
      <path clip-path="url(#p095905f7a2)" d="M 961.2 756 
L 961.2 103.68 
" style="fill:none;stroke:#ffffff;stroke-linecap:round;"/>
     </g>
     <g id="line2d_38"/>
     <g id="text_19">
      <!-- 23日 -->
      <g style="fill:#262626;" transform="translate(943.6 774.6475)scale(0.16 -0.16)">
       <use xlink:href="#.PingFang-SC-Medium-32"/>
       <use x="59.999985" xlink:href="#.PingFang-SC-Medium-33"/>
       <use x="119.999969" xlink:href="#.PingFang-SC-Medium-65e5"/>
      </g>
     </g>
    </g>
    <g id="xtick_20">
     <g id="line2d_39">
      <path clip-path="url(#p095905f7a2)" d="M 1001.781818 756 
L 1001.781818 103.68 
" style="fill:none;stroke:#ffffff;stroke-linecap:round;"/>
     </g>
     <g id="line2d_40"/>
     <g id="text_20">
      <!-- 26日 -->
      <g style="fill:#262626;" transform="translate(984.181818 774.6475)scale(0.16 -0.16)">
       <use xlink:href="#.PingFang-SC-Medium-32"/>
       <use x="59.999985" xlink:href="#.PingFang-SC-Medium-36"/>
       <use x="119.999969" xlink:href="#.PingFang-SC-Medium-65e5"/>
      </g>
     </g>
    </g>
    <g id="xtick_21">
     <g id="line2d_41">
      <path clip-path="url(#p095905f7a2)" d="M 1042.363636 756 
L 1042.363636 103.68 
" style="fill:none;stroke:#ffffff;stroke-linecap:round;"/>
     </g>
     <g id="line2d_42"/>
     <g id="text_21">
      <!-- 28日 -->
      <g style="fill:#262626;" transform="translate(1024.763636 774.6475)scale(0.16 -0.16)">
       <use xlink:href="#.PingFang-SC-Medium-32"/>
       <use x="59.999985" xlink:href="#.PingFang-SC-Medium-38"/>
       <use x="119.999969" xlink:href="#.PingFang-SC-Medium-65e5"/>
      </g>
     </g>
    </g>
    <g id="xtick_22">
     <g id="line2d_43">
      <path clip-path="url(#p095905f7a2)" d="M 1082.945455 756 
L 1082.945455 103.68 
" style="fill:none;stroke:#ffffff;stroke-linecap:round;"/>
     </g>
     <g id="line2d_44"/>
     <g id="text_22">
      <!-- 30日 -->
      <g style="fill:#262626;" transform="translate(1065.345455 774.6475)scale(0.16 -0.16)">
       <use xlink:href="#.PingFang-SC-Medium-33"/>
       <use x="59.999985" xlink:href="#.PingFang-SC-Medium-30"/>
       <use x="119.999969" xlink:href="#.PingFang-SC-Medium-65e5"/>
      </g>
     </g>
    </g>
    <g id="xtick_23">
     <g id="line2d_45">
      <path clip-path="url(#p095905f7a2)" d="M 1123.527273 756 
L 1123.527273 103.68 
" style="fill:none;stroke:#ffffff;stroke-linecap:round;"/>
     </g>
     <g id="line2d_46"/>
     <g id="text_23">
      <!-- 12月 -->
      <g style="fill:#262626;" transform="translate(1105.927273 774.6475)scale(0.16 -0.16)">
       <use xlink:href="#.PingFang-SC-Medium-31"/>
       <use x="59.999985" xlink:href="#.PingFang-SC-Medium-32"/>
       <use x="119.999969" xlink:href="#.PingFang-SC-Medium-6708"/>
      </g>
      <!-- 2日 -->
      <g style="fill:#262626;" transform="translate(1110.727273 791.792)scale(0.16 -0.16)">
       <use xlink:href="#.PingFang-SC-Medium-32"/>
       <use x="59.999985" xlink:href="#.PingFang-SC-Medium-65e5"/>
      </g>
     </g>
    </g>
    <g id="xtick_24">
     <g id="line2d_47">
      <path clip-path="url(#p095905f7a2)" d="M 1164.109091 756 
L 1164.109091 103.68 
" style="fill:none;stroke:#ffffff;stroke-linecap:round;"/>
     </g>
     <g id="line2d_48"/>
     <g id="text_24">
      <!-- 10日 -->
      <g style="fill:#262626;" transform="translate(1146.509091 774.6475)scale(0.16 -0.16)">
       <use xlink:href="#.PingFang-SC-Medium-31"/>
       <use x="59.999985" xlink:href="#.PingFang-SC-Medium-30"/>
       <use x="119.999969" xlink:href="#.PingFang-SC-Medium-65e5"/>
      </g>
     </g>
    </g>
    <g id="xtick_25">
     <g id="line2d_49">
      <path clip-path="url(#p095905f7a2)" d="M 1204.690909 756 
L 1204.690909 103.68 
" style="fill:none;stroke:#ffffff;stroke-linecap:round;"/>
     </g>
     <g id="line2d_50"/>
     <g id="text_25">
      <!-- 14日 -->
      <g style="fill:#262626;" transform="translate(1187.090909 774.6475)scale(0.16 -0.16)">
       <use xlink:href="#.PingFang-SC-Medium-31"/>
       <use x="59.999985" xlink:href="#.PingFang-SC-Medium-34"/>
       <use x="119.999969" xlink:href="#.PingFang-SC-Medium-65e5"/>
      </g>
     </g>
    </g>
    <g id="xtick_26">
     <g id="line2d_51">
      <path clip-path="url(#p095905f7a2)" d="M 1245.272727 756 
L 1245.272727 103.68 
" style="fill:none;stroke:#ffffff;stroke-linecap:round;"/>
     </g>
     <g id="line2d_52"/>
     <g id="text_26">
      <!-- 20日 -->
      <g style="fill:#262626;" transform="translate(1227.672727 774.6475)scale(0.16 -0.16)">
       <use xlink:href="#.PingFang-SC-Medium-32"/>
       <use x="59.999985" xlink:href="#.PingFang-SC-Medium-30"/>
       <use x="119.999969" xlink:href="#.PingFang-SC-Medium-65e5"/>
      </g>
     </g>
    </g>
    <g id="text_27">
     <!-- 日期 -->
     <defs>
      <path d="M 11.40625 81.5 
L 11.40625 71.203125 
L 6 71.203125 
L 6 62.40625 
L 11.40625 62.40625 
L 11.40625 22.296875 
L 4.90625 22.296875 
L 4.90625 13.5 
L 52.796875 13.5 
L 52.796875 22.296875 
L 47.09375 22.296875 
L 47.09375 62.40625 
L 52.296875 62.40625 
L 52.296875 71.203125 
L 47.09375 71.203125 
L 47.09375 81.296875 
L 37.90625 81.296875 
L 37.90625 71.203125 
L 20.59375 71.203125 
L 20.59375 81.5 
z
M 20.59375 22.296875 
L 20.59375 30.09375 
L 37.90625 30.09375 
L 37.90625 22.296875 
z
M 37.90625 62.40625 
L 37.90625 54.5 
L 20.59375 54.5 
L 20.59375 62.40625 
z
M 20.59375 38.40625 
L 20.59375 46.203125 
L 37.90625 46.203125 
L 37.90625 38.40625 
z
M 38.40625 12.296875 
L 31.09375 7.59375 
C 35.296875 1.703125 38.703125 -3.703125 41.203125 -8.703125 
L 46.90625 -4.703125 
L 53.703125 -11 
C 60.296875 -2.203125 64.296875 8.703125 65.703125 21.796875 
L 82.703125 21.796875 
L 82.703125 3.796875 
C 82.703125 1 81.59375 -0.5 79.40625 -0.5 
C 76.296875 -0.5 73 -0.296875 69.40625 -0.09375 
L 72 -9.40625 
L 82.40625 -9.40625 
C 88.90625 -9.40625 92.203125 -6.09375 92.203125 0.40625 
L 92.203125 78.796875 
L 56.796875 78.796875 
L 56.796875 31 
C 56.703125 18 53.796875 7.203125 48.203125 -1.59375 
C 45.796875 2.40625 42.5 7.09375 38.40625 12.296875 
z
M 16.703125 12.09375 
C 13.09375 5.59375 8.90625 0 4.09375 -4.703125 
L 11.59375 -10.09375 
C 16.40625 -4.90625 20.703125 1.296875 24.296875 8.40625 
z
M 66.296875 45.90625 
L 82.703125 45.90625 
L 82.703125 30.5 
L 66.296875 30.5 
z
M 82.703125 54.5 
L 66.296875 54.5 
L 66.296875 69.796875 
L 82.703125 69.796875 
z
" id=".PingFang-SC-Medium-671f"/>
     </defs>
     <g style="fill:#262626;" transform="translate(718 813.518875)scale(0.2 -0.2)">
      <use xlink:href="#.PingFang-SC-Medium-65e5"/>
      <use x="99.999985" xlink:href="#.PingFang-SC-Medium-671f"/>
     </g>
    </g>
   </g>
   <g id="matplotlib.axis_2">
    <g id="ytick_1">
     <g id="line2d_53">
      <path clip-path="url(#p095905f7a2)" d="M 180 741.554685 
L 1296 741.554685 
" style="fill:none;stroke:#ffffff;stroke-linecap:round;"/>
     </g>
     <g id="line2d_54"/>
     <g id="text_28">
      <!-- 25 -->
      <g style="fill:#262626;" transform="translate(153.8 747.378435)scale(0.16 -0.16)">
       <use xlink:href="#.PingFang-SC-Medium-32"/>
       <use x="59.999985" xlink:href="#.PingFang-SC-Medium-35"/>
      </g>
     </g>
    </g>
    <g id="ytick_2">
     <g id="line2d_55">
      <path clip-path="url(#p095905f7a2)" d="M 180 665.526713 
L 1296 665.526713 
" style="fill:none;stroke:#ffffff;stroke-linecap:round;"/>
     </g>
     <g id="line2d_56"/>
     <g id="text_29">
      <!-- 30 -->
      <g style="fill:#262626;" transform="translate(153.8 671.350463)scale(0.16 -0.16)">
       <use xlink:href="#.PingFang-SC-Medium-33"/>
       <use x="59.999985" xlink:href="#.PingFang-SC-Medium-30"/>
      </g>
     </g>
    </g>
    <g id="ytick_3">
     <g id="line2d_57">
      <path clip-path="url(#p095905f7a2)" d="M 180 589.498741 
L 1296 589.498741 
" style="fill:none;stroke:#ffffff;stroke-linecap:round;"/>
     </g>
     <g id="line2d_58"/>
     <g id="text_30">
      <!-- 35 -->
      <g style="fill:#262626;" transform="translate(153.8 595.322491)scale(0.16 -0.16)">
       <use xlink:href="#.PingFang-SC-Medium-33"/>
       <use x="59.999985" xlink:href="#.PingFang-SC-Medium-35"/>
      </g>
     </g>
    </g>
    <g id="ytick_4">
     <g id="line2d_59">
      <path clip-path="url(#p095905f7a2)" d="M 180 513.470769 
L 1296 513.470769 
" style="fill:none;stroke:#ffffff;stroke-linecap:round;"/>
     </g>
     <g id="line2d_60"/>
     <g id="text_31">
      <!-- 40 -->
      <g style="fill:#262626;" transform="translate(153.8 519.294519)scale(0.16 -0.16)">
       <use xlink:href="#.PingFang-SC-Medium-34"/>
       <use x="59.999985" xlink:href="#.PingFang-SC-Medium-30"/>
      </g>
     </g>
    </g>
    <g id="ytick_5">
     <g id="line2d_61">
      <path clip-path="url(#p095905f7a2)" d="M 180 437.442797 
L 1296 437.442797 
" style="fill:none;stroke:#ffffff;stroke-linecap:round;"/>
     </g>
     <g id="line2d_62"/>
     <g id="text_32">
      <!-- 45 -->
      <g style="fill:#262626;" transform="translate(153.8 443.266547)scale(0.16 -0.16)">
       <use xlink:href="#.PingFang-SC-Medium-34"/>
       <use x="59.999985" xlink:href="#.PingFang-SC-Medium-35"/>
      </g>
     </g>
    </g>
    <g id="ytick_6">
     <g id="line2d_63">
      <path clip-path="url(#p095905f7a2)" d="M 180 361.414825 
L 1296 361.414825 
" style="fill:none;stroke:#ffffff;stroke-linecap:round;"/>
     </g>
     <g id="line2d_64"/>
     <g id="text_33">
      <!-- 50 -->
      <g style="fill:#262626;" transform="translate(153.8 367.238575)scale(0.16 -0.16)">
       <use xlink:href="#.PingFang-SC-Medium-35"/>
       <use x="59.999985" xlink:href="#.PingFang-SC-Medium-30"/>
      </g>
     </g>
    </g>
    <g id="ytick_7">
     <g id="line2d_65">
      <path clip-path="url(#p095905f7a2)" d="M 180 285.386853 
L 1296 285.386853 
" style="fill:none;stroke:#ffffff;stroke-linecap:round;"/>
     </g>
     <g id="line2d_66"/>
     <g id="text_34">
      <!-- 55 -->
      <g style="fill:#262626;" transform="translate(153.8 291.210603)scale(0.16 -0.16)">
       <use xlink:href="#.PingFang-SC-Medium-35"/>
       <use x="59.999985" xlink:href="#.PingFang-SC-Medium-35"/>
      </g>
     </g>
    </g>
    <g id="ytick_8">
     <g id="line2d_67">
      <path clip-path="url(#p095905f7a2)" d="M 180 209.358881 
L 1296 209.358881 
" style="fill:none;stroke:#ffffff;stroke-linecap:round;"/>
     </g>
     <g id="line2d_68"/>
     <g id="text_35">
      <!-- 60 -->
      <g style="fill:#262626;" transform="translate(153.8 215.182631)scale(0.16 -0.16)">
       <use xlink:href="#.PingFang-SC-Medium-36"/>
       <use x="59.999985" xlink:href="#.PingFang-SC-Medium-30"/>
      </g>
     </g>
    </g>
    <g id="ytick_9">
     <g id="line2d_69">
      <path clip-path="url(#p095905f7a2)" d="M 180 133.330909 
L 1296 133.330909 
" style="fill:none;stroke:#ffffff;stroke-linecap:round;"/>
     </g>
     <g id="line2d_70"/>
     <g id="text_36">
      <!-- 65 -->
      <g style="fill:#262626;" transform="translate(153.8 139.154659)scale(0.16 -0.16)">
       <use xlink:href="#.PingFang-SC-Medium-36"/>
       <use x="59.999985" xlink:href="#.PingFang-SC-Medium-35"/>
      </g>
     </g>
    </g>
    <g id="text_37">
     <!-- 价格 -->
     <defs>
      <path d="M 15.59375 43.703125 
L 15.59375 -9.796875 
L 25.203125 -9.796875 
L 25.203125 59.5 
C 28.203125 65.5 30.703125 71.703125 32.703125 78.203125 
L 23.796875 82.40625 
C 19.40625 67.203125 12.5 53.90625 3.203125 42.5 
L 6.40625 32.296875 
C 9.59375 35.90625 12.703125 39.703125 15.59375 43.703125 
z
M 69.296875 46.703125 
L 69.296875 -9.40625 
L 78.5 -9.40625 
L 78.5 46.703125 
z
M 44.09375 46.40625 
L 44.09375 31.59375 
C 43.90625 15 39.703125 3 31.5 -4.5 
L 38.59375 -10.703125 
C 48.203125 -1.796875 53.09375 12.296875 53.296875 31.59375 
L 53.296875 46.40625 
z
M 56.703125 81.5 
C 49.703125 67.09375 39.703125 55.40625 26.703125 46.40625 
L 32 38.296875 
C 43.703125 46.296875 53.40625 57.703125 61 72.40625 
C 67.703125 59.296875 77.90625 48.296875 91.5 39.296875 
L 96.796875 47.40625 
C 82 57.203125 71.5 68.5 65.40625 81.5 
z
" id=".PingFang-SC-Medium-4ef7"/>
      <path d="M 27.09375 38.703125 
C 29.203125 35.40625 31.703125 31.296875 34.59375 26.296875 
L 36.90625 29.796875 
L 39.796875 26 
C 41.296875 26.59375 42.90625 27.203125 44.5 27.796875 
L 44.5 -10.09375 
L 53.796875 -10.09375 
L 53.796875 -6.296875 
L 78.5 -6.296875 
L 78.5 -10.09375 
L 87.703125 -10.09375 
L 87.703125 28.203125 
L 45.40625 28.203125 
C 53.59375 31.59375 60.90625 35.59375 67.09375 40.203125 
C 74 35 82.40625 30.40625 92.296875 26.203125 
L 96.59375 35.203125 
C 88 38.203125 80.40625 41.703125 73.90625 45.90625 
C 80.203125 51.90625 85 58.703125 88.40625 66.296875 
L 88.40625 73.59375 
L 61.296875 73.59375 
C 62.296875 75.59375 63.203125 77.796875 64.203125 80 
L 55.09375 82.09375 
C 50.296875 71.09375 44.5 62.59375 37.703125 56.40625 
L 43.703125 49.09375 
C 46.09375 51.5 48.5 54 50.703125 56.703125 
C 53.296875 53 56.40625 49.5 60 46.09375 
C 54 42.09375 47 38.5 39 35.296875 
C 35 40.5 31.09375 45.203125 27.09375 49.59375 
L 27.09375 54.09375 
L 37.203125 54.09375 
L 37.203125 63.203125 
L 27.09375 63.203125 
L 27.09375 81.90625 
L 17.796875 81.90625 
L 17.796875 63.203125 
L 5.296875 63.203125 
L 5.296875 54.09375 
L 17.59375 54.09375 
C 14.5 42.703125 9.59375 32.59375 3 23.796875 
L 7.09375 13.5 
C 11.296875 20.40625 14.90625 28 17.796875 36.296875 
L 17.796875 -9.90625 
L 27.09375 -9.90625 
z
M 53.796875 2.5 
L 53.796875 19.40625 
L 78.5 19.40625 
L 78.5 2.5 
z
M 66.5 51.203125 
C 62 54.90625 58.296875 58.90625 55.40625 63.296875 
C 55.59375 63.703125 55.90625 64.203125 56.203125 64.59375 
L 77.90625 64.59375 
C 75 59.796875 71.203125 55.40625 66.5 51.203125 
z
" id=".PingFang-SC-Medium-683c"/>
     </defs>
     <g style="fill:#262626;" transform="translate(145.840625 449.84)rotate(-90)scale(0.2 -0.2)">
      <use xlink:href="#.PingFang-SC-Medium-4ef7"/>
      <use x="99.999985" xlink:href="#.PingFang-SC-Medium-683c"/>
     </g>
    </g>
   </g>
   <g id="line2d_71">
    <path clip-path="url(#p095905f7a2)" d="M 230.727273 711.143497 
L 271.309091 726.349091 
L 311.890909 711.143497 
L 352.472727 680.732308 
L 393.054545 680.732308 
L 433.636364 665.526713 
L 474.218182 665.526713 
L 514.8 680.732308 
L 555.381818 665.526713 
L 595.963636 665.526713 
L 636.545455 665.526713 
L 677.127273 665.526713 
L 717.709091 665.526713 
L 758.290909 665.526713 
L 798.872727 680.732308 
L 839.454545 650.321119 
L 880.036364 650.321119 
L 920.618182 604.704336 
L 961.2 574.293147 
L 1001.781818 574.293147 
L 1042.363636 574.293147 
L 1082.945455 589.498741 
L 1123.527273 574.293147 
L 1164.109091 528.676364 
L 1204.690909 513.470769 
L 1245.272727 513.470769 
" style="fill:none;stroke:#4c72b0;stroke-linecap:round;stroke-width:4.5;"/>
    <defs>
     <path d="M 0 7 
C 1.856422 7 3.637059 6.262436 4.949747 4.949747 
C 6.262436 3.637059 7 1.856422 7 0 
C 7 -1.856422 6.262436 -3.637059 4.949747 -4.949747 
C 3.637059 -6.262436 1.856422 -7 0 -7 
C -1.856422 -7 -3.637059 -6.262436 -4.949747 -4.949747 
C -6.262436 -3.637059 -7 -1.856422 -7 0 
C -7 1.856422 -6.262436 3.637059 -4.949747 4.949747 
C -3.637059 6.262436 -1.856422 7 0 7 
z
" id="medca8fbbea"/>
    </defs>
    <g clip-path="url(#p095905f7a2)">
     <use style="fill:#4c72b0;" x="230.727273" xlink:href="#medca8fbbea" y="711.143497"/>
     <use style="fill:#4c72b0;" x="271.309091" xlink:href="#medca8fbbea" y="726.349091"/>
     <use style="fill:#4c72b0;" x="311.890909" xlink:href="#medca8fbbea" y="711.143497"/>
     <use style="fill:#4c72b0;" x="352.472727" xlink:href="#medca8fbbea" y="680.732308"/>
     <use style="fill:#4c72b0;" x="393.054545" xlink:href="#medca8fbbea" y="680.732308"/>
     <use style="fill:#4c72b0;" x="433.636364" xlink:href="#medca8fbbea" y="665.526713"/>
     <use style="fill:#4c72b0;" x="474.218182" xlink:href="#medca8fbbea" y="665.526713"/>
     <use style="fill:#4c72b0;" x="514.8" xlink:href="#medca8fbbea" y="680.732308"/>
     <use style="fill:#4c72b0;" x="555.381818" xlink:href="#medca8fbbea" y="665.526713"/>
     <use style="fill:#4c72b0;" x="595.963636" xlink:href="#medca8fbbea" y="665.526713"/>
     <use style="fill:#4c72b0;" x="636.545455" xlink:href="#medca8fbbea" y="665.526713"/>
     <use style="fill:#4c72b0;" x="677.127273" xlink:href="#medca8fbbea" y="665.526713"/>
     <use style="fill:#4c72b0;" x="717.709091" xlink:href="#medca8fbbea" y="665.526713"/>
     <use style="fill:#4c72b0;" x="758.290909" xlink:href="#medca8fbbea" y="665.526713"/>
     <use style="fill:#4c72b0;" x="798.872727" xlink:href="#medca8fbbea" y="680.732308"/>
     <use style="fill:#4c72b0;" x="839.454545" xlink:href="#medca8fbbea" y="650.321119"/>
     <use style="fill:#4c72b0;" x="880.036364" xlink:href="#medca8fbbea" y="650.321119"/>
     <use style="fill:#4c72b0;" x="920.618182" xlink:href="#medca8fbbea" y="604.704336"/>
     <use style="fill:#4c72b0;" x="961.2" xlink:href="#medca8fbbea" y="574.293147"/>
     <use style="fill:#4c72b0;" x="1001.781818" xlink:href="#medca8fbbea" y="574.293147"/>
     <use style="fill:#4c72b0;" x="1042.363636" xlink:href="#medca8fbbea" y="574.293147"/>
     <use style="fill:#4c72b0;" x="1082.945455" xlink:href="#medca8fbbea" y="589.498741"/>
     <use style="fill:#4c72b0;" x="1123.527273" xlink:href="#medca8fbbea" y="574.293147"/>
     <use style="fill:#4c72b0;" x="1164.109091" xlink:href="#medca8fbbea" y="528.676364"/>
     <use style="fill:#4c72b0;" x="1204.690909" xlink:href="#medca8fbbea" y="513.470769"/>
     <use style="fill:#4c72b0;" x="1245.272727" xlink:href="#medca8fbbea" y="513.470769"/>
    </g>
   </g>
   <g id="line2d_72">
    <path clip-path="url(#p095905f7a2)" d="M 230.727273 650.321119 
L 271.309091 665.526713 
L 311.890909 665.526713 
L 352.472727 589.498741 
L 393.054545 589.498741 
L 433.636364 574.293147 
L 474.218182 574.293147 
L 514.8 604.704336 
L 555.381818 604.704336 
L 595.963636 604.704336 
L 636.545455 604.704336 
L 677.127273 619.90993 
L 717.709091 619.90993 
L 758.290909 619.90993 
L 798.872727 619.90993 
L 839.454545 604.704336 
L 880.036364 604.704336 
L 920.618182 528.676364 
L 961.2 513.470769 
L 1001.781818 498.265175 
L 1042.363636 483.05958 
L 1082.945455 467.853986 
L 1123.527273 452.648392 
L 1164.109091 391.826014 
L 1204.690909 391.826014 
L 1245.272727 331.003636 
" style="fill:none;stroke:#55a868;stroke-linecap:round;stroke-width:4.5;"/>
    <defs>
     <path d="M 0 7 
C 1.856422 7 3.637059 6.262436 4.949747 4.949747 
C 6.262436 3.637059 7 1.856422 7 0 
C 7 -1.856422 6.262436 -3.637059 4.949747 -4.949747 
C 3.637059 -6.262436 1.856422 -7 0 -7 
C -1.856422 -7 -3.637059 -6.262436 -4.949747 -4.949747 
C -6.262436 -3.637059 -7 -1.856422 -7 0 
C -7 1.856422 -6.262436 3.637059 -4.949747 4.949747 
C -3.637059 6.262436 -1.856422 7 0 7 
z
" id="m4cacd60f41"/>
    </defs>
    <g clip-path="url(#p095905f7a2)">
     <use style="fill:#55a868;" x="230.727273" xlink:href="#m4cacd60f41" y="650.321119"/>
     <use style="fill:#55a868;" x="271.309091" xlink:href="#m4cacd60f41" y="665.526713"/>
     <use style="fill:#55a868;" x="311.890909" xlink:href="#m4cacd60f41" y="665.526713"/>
     <use style="fill:#55a868;" x="352.472727" xlink:href="#m4cacd60f41" y="589.498741"/>
     <use style="fill:#55a868;" x="393.054545" xlink:href="#m4cacd60f41" y="589.498741"/>
     <use style="fill:#55a868;" x="433.636364" xlink:href="#m4cacd60f41" y="574.293147"/>
     <use style="fill:#55a868;" x="474.218182" xlink:href="#m4cacd60f41" y="574.293147"/>
     <use style="fill:#55a868;" x="514.8" xlink:href="#m4cacd60f41" y="604.704336"/>
     <use style="fill:#55a868;" x="555.381818" xlink:href="#m4cacd60f41" y="604.704336"/>
     <use style="fill:#55a868;" x="595.963636" xlink:href="#m4cacd60f41" y="604.704336"/>
     <use style="fill:#55a868;" x="636.545455" xlink:href="#m4cacd60f41" y="604.704336"/>
     <use style="fill:#55a868;" x="677.127273" xlink:href="#m4cacd60f41" y="619.90993"/>
     <use style="fill:#55a868;" x="717.709091" xlink:href="#m4cacd60f41" y="619.90993"/>
     <use style="fill:#55a868;" x="758.290909" xlink:href="#m4cacd60f41" y="619.90993"/>
     <use style="fill:#55a868;" x="798.872727" xlink:href="#m4cacd60f41" y="619.90993"/>
     <use style="fill:#55a868;" x="839.454545" xlink:href="#m4cacd60f41" y="604.704336"/>
     <use style="fill:#55a868;" x="880.036364" xlink:href="#m4cacd60f41" y="604.704336"/>
     <use style="fill:#55a868;" x="920.618182" xlink:href="#m4cacd60f41" y="528.676364"/>
     <use style="fill:#55a868;" x="961.2" xlink:href="#m4cacd60f41" y="513.470769"/>
     <use style="fill:#55a868;" x="1001.781818" xlink:href="#m4cacd60f41" y="498.265175"/>
     <use style="fill:#55a868;" x="1042.363636" xlink:href="#m4cacd60f41" y="483.05958"/>
     <use style="fill:#55a868;" x="1082.945455" xlink:href="#m4cacd60f41" y="467.853986"/>
     <use style="fill:#55a868;" x="1123.527273" xlink:href="#m4cacd60f41" y="452.648392"/>
     <use style="fill:#55a868;" x="1164.109091" xlink:href="#m4cacd60f41" y="391.826014"/>
     <use style="fill:#55a868;" x="1204.690909" xlink:href="#m4cacd60f41" y="391.826014"/>
     <use style="fill:#55a868;" x="1245.272727" xlink:href="#m4cacd60f41" y="331.003636"/>
    </g>
   </g>
   <g id="line2d_73">
    <path clip-path="url(#p095905f7a2)" d="M 230.727273 589.498741 
L 271.309091 589.498741 
L 311.890909 589.498741 
L 352.472727 498.265175 
L 393.054545 513.470769 
L 433.636364 483.05958 
L 474.218182 528.676364 
L 514.8 528.676364 
L 555.381818 543.881958 
L 595.963636 543.881958 
L 636.545455 559.087552 
L 677.127273 559.087552 
L 717.709091 574.293147 
L 758.290909 574.293147 
L 798.872727 559.087552 
L 839.454545 543.881958 
L 880.036364 543.881958 
L 920.618182 422.237203 
L 961.2 391.826014 
L 1001.781818 391.826014 
L 1042.363636 391.826014 
L 1082.945455 391.826014 
L 1123.527273 391.826014 
L 1164.109091 285.386853 
L 1204.690909 285.386853 
L 1245.272727 209.358881 
" style="fill:none;stroke:#c44e52;stroke-linecap:round;stroke-width:4.5;"/>
    <defs>
     <path d="M 0 7 
C 1.856422 7 3.637059 6.262436 4.949747 4.949747 
C 6.262436 3.637059 7 1.856422 7 0 
C 7 -1.856422 6.262436 -3.637059 4.949747 -4.949747 
C 3.637059 -6.262436 1.856422 -7 0 -7 
C -1.856422 -7 -3.637059 -6.262436 -4.949747 -4.949747 
C -6.262436 -3.637059 -7 -1.856422 -7 0 
C -7 1.856422 -6.262436 3.637059 -4.949747 4.949747 
C -3.637059 6.262436 -1.856422 7 0 7 
z
" id="maf205efc3b"/>
    </defs>
    <g clip-path="url(#p095905f7a2)">
     <use style="fill:#c44e52;" x="230.727273" xlink:href="#maf205efc3b" y="589.498741"/>
     <use style="fill:#c44e52;" x="271.309091" xlink:href="#maf205efc3b" y="589.498741"/>
     <use style="fill:#c44e52;" x="311.890909" xlink:href="#maf205efc3b" y="589.498741"/>
     <use style="fill:#c44e52;" x="352.472727" xlink:href="#maf205efc3b" y="498.265175"/>
     <use style="fill:#c44e52;" x="393.054545" xlink:href="#maf205efc3b" y="513.470769"/>
     <use style="fill:#c44e52;" x="433.636364" xlink:href="#maf205efc3b" y="483.05958"/>
     <use style="fill:#c44e52;" x="474.218182" xlink:href="#maf205efc3b" y="528.676364"/>
     <use style="fill:#c44e52;" x="514.8" xlink:href="#maf205efc3b" y="528.676364"/>
     <use style="fill:#c44e52;" x="555.381818" xlink:href="#maf205efc3b" y="543.881958"/>
     <use style="fill:#c44e52;" x="595.963636" xlink:href="#maf205efc3b" y="543.881958"/>
     <use style="fill:#c44e52;" x="636.545455" xlink:href="#maf205efc3b" y="559.087552"/>
     <use style="fill:#c44e52;" x="677.127273" xlink:href="#maf205efc3b" y="559.087552"/>
     <use style="fill:#c44e52;" x="717.709091" xlink:href="#maf205efc3b" y="574.293147"/>
     <use style="fill:#c44e52;" x="758.290909" xlink:href="#maf205efc3b" y="574.293147"/>
     <use style="fill:#c44e52;" x="798.872727" xlink:href="#maf205efc3b" y="559.087552"/>
     <use style="fill:#c44e52;" x="839.454545" xlink:href="#maf205efc3b" y="543.881958"/>
     <use style="fill:#c44e52;" x="880.036364" xlink:href="#maf205efc3b" y="543.881958"/>
     <use style="fill:#c44e52;" x="920.618182" xlink:href="#maf205efc3b" y="422.237203"/>
     <use style="fill:#c44e52;" x="961.2" xlink:href="#maf205efc3b" y="391.826014"/>
     <use style="fill:#c44e52;" x="1001.781818" xlink:href="#maf205efc3b" y="391.826014"/>
     <use style="fill:#c44e52;" x="1042.363636" xlink:href="#maf205efc3b" y="391.826014"/>
     <use style="fill:#c44e52;" x="1082.945455" xlink:href="#maf205efc3b" y="391.826014"/>
     <use style="fill:#c44e52;" x="1123.527273" xlink:href="#maf205efc3b" y="391.826014"/>
     <use style="fill:#c44e52;" x="1164.109091" xlink:href="#maf205efc3b" y="285.386853"/>
     <use style="fill:#c44e52;" x="1204.690909" xlink:href="#maf205efc3b" y="285.386853"/>
     <use style="fill:#c44e52;" x="1245.272727" xlink:href="#maf205efc3b" y="209.358881"/>
    </g>
   </g>
   <g id="line2d_74">
    <path clip-path="url(#p095905f7a2)" d="M 230.727273 437.442797 
L 271.309091 452.648392 
L 311.890909 452.648392 
L 352.472727 391.826014 
L 393.054545 391.826014 
L 433.636364 361.414825 
L 474.218182 376.62042 
L 514.8 391.826014 
L 555.381818 437.442797 
L 595.963636 452.648392 
L 636.545455 452.648392 
L 677.127273 452.648392 
L 717.709091 452.648392 
L 758.290909 452.648392 
L 798.872727 437.442797 
L 839.454545 376.62042 
L 880.036364 407.031608 
L 920.618182 285.386853 
L 961.2 285.386853 
L 1001.781818 300.592448 
L 1042.363636 315.798042 
L 1082.945455 285.386853 
L 1123.527273 270.181259 
L 1164.109091 209.358881 
L 1204.690909 194.153287 
L 1245.272727 133.330909 
" style="fill:none;stroke:#8172b2;stroke-linecap:round;stroke-width:4.5;"/>
    <defs>
     <path d="M 0 7 
C 1.856422 7 3.637059 6.262436 4.949747 4.949747 
C 6.262436 3.637059 7 1.856422 7 0 
C 7 -1.856422 6.262436 -3.637059 4.949747 -4.949747 
C 3.637059 -6.262436 1.856422 -7 0 -7 
C -1.856422 -7 -3.637059 -6.262436 -4.949747 -4.949747 
C -6.262436 -3.637059 -7 -1.856422 -7 0 
C -7 1.856422 -6.262436 3.637059 -4.949747 4.949747 
C -3.637059 6.262436 -1.856422 7 0 7 
z
" id="me0932683de"/>
    </defs>
    <g clip-path="url(#p095905f7a2)">
     <use style="fill:#8172b2;" x="230.727273" xlink:href="#me0932683de" y="437.442797"/>
     <use style="fill:#8172b2;" x="271.309091" xlink:href="#me0932683de" y="452.648392"/>
     <use style="fill:#8172b2;" x="311.890909" xlink:href="#me0932683de" y="452.648392"/>
     <use style="fill:#8172b2;" x="352.472727" xlink:href="#me0932683de" y="391.826014"/>
     <use style="fill:#8172b2;" x="393.054545" xlink:href="#me0932683de" y="391.826014"/>
     <use style="fill:#8172b2;" x="433.636364" xlink:href="#me0932683de" y="361.414825"/>
     <use style="fill:#8172b2;" x="474.218182" xlink:href="#me0932683de" y="376.62042"/>
     <use style="fill:#8172b2;" x="514.8" xlink:href="#me0932683de" y="391.826014"/>
     <use style="fill:#8172b2;" x="555.381818" xlink:href="#me0932683de" y="437.442797"/>
     <use style="fill:#8172b2;" x="595.963636" xlink:href="#me0932683de" y="452.648392"/>
     <use style="fill:#8172b2;" x="636.545455" xlink:href="#me0932683de" y="452.648392"/>
     <use style="fill:#8172b2;" x="677.127273" xlink:href="#me0932683de" y="452.648392"/>
     <use style="fill:#8172b2;" x="717.709091" xlink:href="#me0932683de" y="452.648392"/>
     <use style="fill:#8172b2;" x="758.290909" xlink:href="#me0932683de" y="452.648392"/>
     <use style="fill:#8172b2;" x="798.872727" xlink:href="#me0932683de" y="437.442797"/>
     <use style="fill:#8172b2;" x="839.454545" xlink:href="#me0932683de" y="376.62042"/>
     <use style="fill:#8172b2;" x="880.036364" xlink:href="#me0932683de" y="407.031608"/>
     <use style="fill:#8172b2;" x="920.618182" xlink:href="#me0932683de" y="285.386853"/>
     <use style="fill:#8172b2;" x="961.2" xlink:href="#me0932683de" y="285.386853"/>
     <use style="fill:#8172b2;" x="1001.781818" xlink:href="#me0932683de" y="300.592448"/>
     <use style="fill:#8172b2;" x="1042.363636" xlink:href="#me0932683de" y="315.798042"/>
     <use style="fill:#8172b2;" x="1082.945455" xlink:href="#me0932683de" y="285.386853"/>
     <use style="fill:#8172b2;" x="1123.527273" xlink:href="#me0932683de" y="270.181259"/>
     <use style="fill:#8172b2;" x="1164.109091" xlink:href="#me0932683de" y="209.358881"/>
     <use style="fill:#8172b2;" x="1204.690909" xlink:href="#me0932683de" y="194.153287"/>
     <use style="fill:#8172b2;" x="1245.272727" xlink:href="#me0932683de" y="133.330909"/>
    </g>
   </g>
   <g id="patch_3">
    <path d="M 180 756 
L 180 103.68 
" style="fill:none;"/>
   </g>
   <g id="patch_4">
    <path d="M 1296 756 
L 1296 103.68 
" style="fill:none;"/>
   </g>
   <g id="patch_5">
    <path d="M 180 756 
L 1296 756 
" style="fill:none;"/>
   </g>
   <g id="patch_6">
    <path d="M 180 103.68 
L 1296 103.68 
" style="fill:none;"/>
   </g>
   <g id="text_38">
    <!-- 武汉水产市场价格变动 -->
    <defs>
     <path d="M 12.90625 75.796875 
L 12.90625 66.90625 
L 51.703125 66.90625 
L 51.703125 75.796875 
z
M 5.5 59.09375 
L 5.5 49.90625 
L 60.40625 49.90625 
C 61.09375 41.296875 62.203125 33.796875 63.59375 27.5 
C 66.40625 14.90625 69.796875 5.59375 73.90625 -0.40625 
C 78.09375 -6.40625 82.09375 -9.40625 85.703125 -9.40625 
C 90.09375 -9.40625 93.5 -2.703125 95.703125 10.59375 
L 87.203125 15.40625 
C 86.203125 7 85.09375 2.703125 84.09375 2.703125 
C 82.90625 2.703125 81.09375 4.90625 78.796875 9.296875 
C 76.40625 14 74.296875 21.296875 72.296875 31.203125 
C 71.296875 36 70.59375 42.296875 70 49.90625 
L 94.40625 49.90625 
L 94.40625 59.09375 
L 69.40625 59.09375 
C 69 65.796875 68.796875 73.40625 68.796875 81.90625 
L 59.296875 81.90625 
C 59.296875 73.796875 59.40625 66.203125 59.796875 59.09375 
z
M 32.296875 45.203125 
L 32.296875 5.59375 
C 28.90625 5 25.5 4.296875 22 3.703125 
L 22 37.09375 
L 12.796875 37.09375 
L 12.796875 2.203125 
C 10 1.796875 7.203125 1.40625 4.203125 1 
L 5.5 -8.5 
C 26 -5.5 44.296875 -1.5 60.5 3.5 
L 60.5 12.5 
C 54.703125 10.703125 48.40625 9.09375 41.703125 7.59375 
L 41.703125 23.40625 
L 57.796875 23.40625 
L 57.796875 32.09375 
L 41.703125 32.09375 
L 41.703125 45.203125 
z
M 81.09375 81.703125 
L 73.296875 78.296875 
C 77.09375 73.5 80.59375 68.09375 83.796875 61.90625 
L 91.59375 65.90625 
C 88.59375 71.703125 85.09375 76.90625 81.09375 81.703125 
z
" id=".PingFang-SC-Medium-6b66"/>
     <path d="M 14.09375 81.09375 
L 7.296875 74.5 
C 15.09375 68.703125 21.09375 63.296875 25.296875 58.296875 
L 32.09375 65.09375 
C 27.203125 70.40625 21.203125 75.703125 14.09375 81.09375 
z
M 11.703125 57.59375 
L 4.90625 51 
C 12.59375 45.5 18.59375 40.40625 22.796875 35.703125 
L 29.59375 42.5 
C 24.796875 47.5 18.796875 52.59375 11.703125 57.59375 
z
M 23.796875 29.40625 
C 18.90625 17.59375 13.203125 6 6.703125 -5.40625 
L 16.203125 -9.5 
C 22.203125 1.5 27.59375 13.296875 32.40625 25.90625 
z
M 90.40625 -9.90625 
L 97 -2.296875 
C 86.796875 4.296875 78.40625 11.5 71.59375 19.40625 
C 81 32.59375 87.5 48.5 90.90625 67.296875 
L 90.90625 75.703125 
L 34.90625 75.703125 
L 34.90625 66.5 
L 42.40625 66.5 
C 44.09375 49.296875 49.90625 33.703125 59.90625 19.703125 
C 52.296875 10.703125 42.703125 3.203125 31.203125 -2.59375 
L 37.40625 -10.296875 
C 48.40625 -4.40625 57.796875 3.09375 65.796875 12.09375 
C 72.5 4.296875 80.703125 -3.09375 90.40625 -9.90625 
z
M 65.59375 27.203125 
C 57.5 38.90625 52.796875 52 51.40625 66.5 
L 81.09375 66.5 
C 78.203125 51.5 73 38.40625 65.59375 27.203125 
z
" id=".PingFang-SC-Medium-6c49"/>
     <path d="M 6.703125 57.40625 
L 6.703125 48.203125 
L 30.203125 48.203125 
C 25.296875 30.59375 16.40625 16.90625 3.40625 7.296875 
L 9.40625 -0.5 
C 24.703125 10.90625 34.796875 27.703125 39.59375 49.90625 
L 39.59375 57.40625 
z
M 83.296875 66.796875 
C 77.203125 58.59375 70.40625 51.203125 62.90625 44.59375 
C 60.09375 49.90625 57.59375 55.5 55.59375 61.5 
L 55.59375 82.203125 
L 46 82.203125 
L 46 3.09375 
C 46 0.296875 44.796875 -1.203125 42.5 -1.203125 
C 38.703125 -1.203125 34.703125 -1 30.5 -0.59375 
L 32.59375 -9.90625 
L 45.796875 -9.90625 
C 52.296875 -9.90625 55.59375 -6.296875 55.59375 0.703125 
L 55.59375 41.703125 
C 62.90625 25.90625 74.703125 11.40625 90.90625 -1.703125 
L 96.90625 7 
C 84.796875 15 74.90625 25.09375 67.203125 37.296875 
C 75.40625 43.796875 83.40625 51.703125 91 61.09375 
z
" id=".PingFang-SC-Medium-6c34"/>
     <path d="M 51.296875 83.203125 
L 41.296875 81.59375 
C 42.90625 78.796875 44.40625 75.703125 45.703125 72.40625 
L 10.5 72.40625 
L 10.5 63.40625 
L 28.296875 63.40625 
L 31.796875 50.296875 
L 11.59375 50.296875 
L 11.59375 27.59375 
C 11.40625 14.296875 8.59375 3.90625 3.203125 -3.703125 
L 10.5 -10.09375 
C 17.296875 -0.59375 20.796875 12 21.203125 27.59375 
L 21.203125 41.09375 
L 92.203125 41.09375 
L 92.203125 50.296875 
L 69.09375 50.296875 
C 70.90625 54.5 72.296875 58.90625 73.296875 63.40625 
L 90.09375 63.40625 
L 90.09375 72.40625 
L 55.40625 72.40625 
C 54 76.40625 52.703125 80 51.296875 83.203125 
z
M 41.203125 50.296875 
L 37.59375 63.40625 
L 64.203125 63.40625 
C 63.203125 58.90625 61.796875 54.5 60 50.296875 
z
" id=".PingFang-SC-Medium-4ea7"/>
     <path d="M 5.40625 71.296875 
L 5.40625 62.203125 
L 45.203125 62.203125 
L 45.203125 51.296875 
L 14 51.296875 
L 14 3.796875 
L 23.296875 3.796875 
L 23.296875 42.203125 
L 45.203125 42.203125 
L 45.203125 -10.203125 
L 54.796875 -10.203125 
L 54.796875 42.203125 
L 77.90625 42.203125 
L 77.90625 16.40625 
C 77.90625 14.203125 76.703125 13 74.296875 13 
L 64.796875 13.5 
L 67.203125 4.5 
L 77.296875 4.5 
C 83.90625 4.5 87.296875 7.796875 87.296875 14.203125 
L 87.296875 51.296875 
L 54.796875 51.296875 
L 54.796875 62.203125 
L 94.59375 62.203125 
L 94.59375 71.296875 
L 54.703125 71.296875 
C 53.296875 75.5 51.796875 79.40625 50.296875 82.90625 
L 40.09375 81.296875 
C 41.90625 78.296875 43.5 74.90625 45 71.296875 
z
" id=".PingFang-SC-Medium-5e02"/>
     <path d="M 54.796875 39.40625 
C 51.59375 30.5 46.40625 23.203125 39.09375 17.5 
L 45 10.09375 
C 53.90625 17.09375 60.203125 26.90625 63.796875 39.40625 
L 69.90625 39.40625 
C 67.703125 29.5 64.59375 21.59375 60.40625 15.796875 
C 55.59375 9.5 48.5 3.796875 39.296875 -1.296875 
L 45.09375 -8.796875 
C 55.5 -2.796875 63.296875 4 68.5 11.59375 
C 73.09375 18.40625 76.59375 27.59375 79 39.40625 
L 84.09375 39.40625 
C 83.5 19 82.59375 7.40625 81.40625 4.703125 
C 80 1.5 77.703125 -0.09375 74.296875 -0.203125 
C 70.703125 -0.203125 67.09375 0 63.40625 0.40625 
L 66 -8.796875 
C 69.09375 -9 72.296875 -9.09375 75.59375 -9.09375 
C 83.40625 -8.90625 88.203125 -5.5 90 1.296875 
C 91.796875 8.09375 93 23.5 93.703125 47.59375 
L 57.296875 47.59375 
C 67.703125 54.203125 77.40625 61.296875 86.296875 68.796875 
L 86.296875 77 
L 42.59375 77 
L 42.59375 68.296875 
L 72.203125 68.296875 
C 62.703125 61.203125 52.40625 54.5 41.203125 48.09375 
L 41.203125 39.40625 
z
M 4.796875 55.09375 
L 4.796875 46 
L 16 46 
L 16 11.09375 
C 12 10.09375 7.90625 9.296875 3.703125 8.59375 
L 6.203125 -1.40625 
C 17.203125 1.09375 27.59375 4.203125 37.203125 7.90625 
L 37.203125 17.796875 
C 33.40625 16.40625 29.59375 15 25.59375 13.703125 
L 25.59375 46 
L 37.296875 46 
L 37.296875 55.09375 
L 25.59375 55.09375 
L 25.59375 79.59375 
L 16 79.59375 
L 16 55.09375 
z
" id=".PingFang-SC-Medium-573a"/>
     <path d="M 77.5 61.09375 
L 71.203125 55 
C 78.796875 49.59375 84.796875 44.5 89.09375 39.703125 
L 95.703125 46.296875 
C 90.796875 51.296875 84.703125 56.203125 77.5 61.09375 
z
M 52.296875 83 
L 42.09375 81.40625 
C 43.296875 79.09375 44.40625 76.59375 45.40625 74 
L 6.703125 74 
L 6.703125 64.796875 
L 33.59375 64.796875 
L 33.59375 38.90625 
L 43 38.90625 
L 43 64.796875 
L 57.09375 64.796875 
L 57.09375 38.90625 
L 66.5 38.90625 
L 66.5 64.796875 
L 93.296875 64.796875 
L 93.296875 74 
L 55.09375 74 
C 54.203125 77.296875 53.296875 80.296875 52.296875 83 
z
M 22.40625 60.703125 
C 17.5 55.703125 11.5 51.296875 4.296875 47.5 
L 10.09375 39.90625 
C 17.703125 44.203125 24.203125 49.09375 29.40625 54.59375 
z
M 13.5 34.59375 
L 13.5 26.203125 
L 21.296875 26.203125 
C 26.5 19.40625 33 13.40625 41 8.203125 
C 30.5 4 18.5 0.90625 5.09375 -1 
L 9.5 -10 
C 25.296875 -7.40625 39.09375 -3.203125 51 2.59375 
C 62.40625 -3 76.09375 -7.203125 92.09375 -9.90625 
L 96.5 -1.203125 
C 82.703125 0.59375 70.59375 3.59375 60.203125 7.703125 
C 69.09375 13.09375 76.59375 19.703125 82.796875 27.40625 
L 82.796875 34.59375 
z
M 32 26.203125 
L 69.59375 26.203125 
C 64 20.90625 57.40625 16.296875 50 12.40625 
C 42.90625 16.203125 36.90625 20.796875 32 26.203125 
z
" id=".PingFang-SC-Medium-53d8"/>
     <path d="M 8.5 75.796875 
L 8.5 66.703125 
L 45.703125 66.703125 
L 45.703125 75.796875 
z
M 4.796875 48.796875 
L 4.796875 39.59375 
L 17.59375 39.59375 
C 13 22.796875 9.40625 12.5 6.703125 8.59375 
C 6.296875 8.296875 5.703125 8 4.703125 7.796875 
L 7 -1.203125 
C 19.203125 1 30.5 3.90625 41 7.5 
L 43.59375 1.09375 
L 51.796875 5.296875 
C 47.59375 15.40625 43.203125 24.703125 38.59375 33.09375 
L 30.59375 29.203125 
C 32.90625 24.90625 35.203125 20.296875 37.5 15.40625 
C 30.796875 12.90625 24.09375 10.90625 17.5 9.5 
C 20.09375 15.90625 23.203125 25.90625 26.796875 39.59375 
L 49.296875 39.59375 
L 49.296875 48.796875 
z
M 62.796875 81.703125 
L 62.796875 63.90625 
L 51.203125 63.90625 
L 51.203125 54.796875 
L 62.796875 54.796875 
L 62.796875 52.703125 
C 62.59375 26.5 56.40625 7.5 44.203125 -4.296875 
L 51.703125 -11 
C 65.203125 2.5 72.09375 23.703125 72.296875 52.703125 
L 72.296875 54.796875 
L 84.703125 54.796875 
C 84.5 27 84.09375 10.703125 83.5 5.796875 
C 82.796875 1.203125 80.40625 -1.09375 76.203125 -1.09375 
C 73.59375 -1.09375 70.40625 -0.90625 66.796875 -0.59375 
L 69 -9 
C 73.09375 -9.203125 76 -9.40625 77.59375 -9.40625 
C 86.5 -9.40625 91.5 -5.703125 92.59375 1.703125 
C 93.5 9.5 94 30.296875 94 63.90625 
L 72.296875 63.90625 
L 72.296875 81.703125 
z
" id=".PingFang-SC-Medium-52a8"/>
    </defs>
    <g style="fill:#262626;" transform="translate(648 97.68)scale(0.18 -0.18)">
     <use xlink:href="#.PingFang-SC-Medium-6b66"/>
     <use x="99.999985" xlink:href="#.PingFang-SC-Medium-6c49"/>
     <use x="199.999969" xlink:href="#.PingFang-SC-Medium-6c34"/>
     <use x="299.999954" xlink:href="#.PingFang-SC-Medium-4ea7"/>
     <use x="399.999939" xlink:href="#.PingFang-SC-Medium-5e02"/>
     <use x="499.999924" xlink:href="#.PingFang-SC-Medium-573a"/>
     <use x="599.999908" xlink:href="#.PingFang-SC-Medium-4ef7"/>
     <use x="699.999893" xlink:href="#.PingFang-SC-Medium-683c"/>
     <use x="799.999878" xlink:href="#.PingFang-SC-Medium-53d8"/>
     <use x="899.999863" xlink:href="#.PingFang-SC-Medium-52a8"/>
    </g>
   </g>
   <g id="legend_1">
    <g id="text_39">
     <!-- 分类规格 -->
     <defs>
      <path d="M 34.796875 80.09375 
C 30.796875 72.5 26.40625 66.09375 21.796875 60.90625 
C 16.296875 54.59375 10.40625 49.703125 4 46.09375 
L 9.203125 37.703125 
C 17.703125 43.90625 24.296875 49.59375 29 54.90625 
C 33.59375 60.09375 38.203125 66.90625 42.796875 75.296875 
z
M 37 34 
C 35 25.203125 32 18.203125 28.203125 12.796875 
C 23.796875 7.09375 17.296875 1.90625 8.59375 -2.796875 
L 14.5 -10.40625 
C 24.40625 -4.796875 31.796875 1.59375 36.703125 8.59375 
C 40.796875 14.796875 44 23.296875 46.40625 34 
L 71.09375 34 
C 70.5 19.59375 69.40625 10.09375 67.703125 5.703125 
C 65.90625 1.5 62.296875 -0.703125 56.703125 -0.703125 
C 51.5 -0.703125 46 -0.59375 40.203125 -0.40625 
L 42.703125 -9.5 
L 61.40625 -9.5 
C 66.796875 -9.203125 70.796875 -7.5 73.203125 -4.5 
C 75.703125 -1.40625 77.5 4.09375 78.59375 11.90625 
C 79.59375 19.90625 80.296875 30.296875 80.59375 43.09375 
L 18.5 43.09375 
L 18.5 34 
z
M 66.296875 81.40625 
L 58.09375 76.796875 
C 64.09375 61.09375 74.5 48.296875 89.5 38.40625 
L 95.90625 45.90625 
C 81.5 54.5 71.703125 66.40625 66.296875 81.40625 
z
" id=".PingFang-SC-Medium-5206"/>
      <path d="M 7.5 62.90625 
L 7.5 54 
L 36.40625 54 
C 30.703125 48.703125 20.90625 43.796875 7 39.40625 
L 12.09375 31.203125 
C 28.09375 37.59375 39.09375 45.203125 45.203125 54 
L 45.203125 37 
L 54.796875 37 
L 54.796875 46.703125 
C 65.5 43.09375 76 38.296875 86.296875 32.296875 
L 91.5 40.296875 
C 80.296875 45.203125 68.09375 49.40625 54.796875 52.90625 
L 54.796875 54 
L 92.5 54 
L 92.5 62.90625 
L 54.796875 62.90625 
L 54.796875 82.09375 
L 45.203125 82.09375 
L 45.203125 62.90625 
z
M 6.703125 25.296875 
L 6.703125 16.40625 
L 39.40625 16.40625 
C 38 14.40625 36.40625 12.5 34.59375 10.796875 
C 28.59375 5.5 18.796875 1.40625 5.40625 -1.5 
L 9.09375 -10.296875 
C 24.90625 -6.5 36 -1.5 42.40625 4.90625 
C 45 7.703125 47.296875 10.796875 49.203125 14.296875 
C 58.40625 2.703125 72 -5.59375 89.90625 -10.5 
L 94.703125 -2.09375 
C 79.296875 1.5 67.09375 7.703125 58.09375 16.40625 
L 93.296875 16.40625 
L 93.296875 25.296875 
L 53.5 25.296875 
C 54.09375 27.90625 54.703125 30.796875 55.09375 33.796875 
L 45.5 33.796875 
C 45.09375 30.796875 44.40625 28 43.59375 25.296875 
z
M 73 80.59375 
C 70.90625 75.203125 68.5 70.796875 65.796875 67.296875 
L 74 64.40625 
C 77.203125 68.40625 79.796875 73 81.796875 78.296875 
z
M 26.5 79.90625 
L 17.796875 77.09375 
C 21.203125 73.09375 24 68.90625 26.203125 64.5 
L 34.703125 66.703125 
C 32.296875 71.703125 29.5 76.09375 26.5 79.90625 
z
" id=".PingFang-SC-Medium-7c7b"/>
      <path d="M 6.796875 68.5 
L 6.796875 59.40625 
L 20.40625 59.40625 
L 20.40625 45.09375 
L 5.40625 45.09375 
L 5.40625 36 
L 20 36 
C 18.5 18 13.296875 4.59375 4.296875 -4.40625 
L 11.40625 -10.59375 
C 19 -3 24.296875 7.5 27.296875 20.90625 
C 30.703125 17.09375 34.90625 11.796875 39.90625 4.90625 
L 45.296875 13 
C 39.703125 19.203125 34.203125 24.703125 28.796875 29.703125 
C 29 31.703125 29.296875 33.796875 29.5 36 
L 43.59375 36 
L 43.59375 45.09375 
L 29.90625 45.09375 
L 29.90625 59.40625 
L 42.203125 59.40625 
L 42.203125 68.5 
L 29.90625 68.5 
L 29.90625 81.40625 
L 20.40625 81.40625 
L 20.40625 68.5 
z
M 89.40625 78.40625 
L 46.703125 78.40625 
L 46.703125 22.5 
L 55.796875 22.5 
L 55.796875 69.703125 
L 80.296875 69.703125 
L 80.296875 22.5 
L 89.40625 22.5 
z
M 85.796875 -8.796875 
C 89 -8.796875 91.40625 -8 93 -6.5 
C 94.59375 -4.796875 95.796875 0.296875 96.40625 8.90625 
L 88.296875 11.5 
C 88 5.703125 87.5 2.296875 86.90625 1.09375 
C 86.296875 0.09375 85.5 -0.40625 84.296875 -0.40625 
L 79.703125 -0.40625 
C 78 -0.40625 77.203125 0.5 77.203125 2.203125 
L 77.203125 22.40625 
L 69.59375 22.40625 
C 71.203125 28.796875 72.203125 36.203125 72.40625 44.40625 
L 72.40625 62.796875 
L 63.703125 62.796875 
L 63.703125 44.40625 
C 63.296875 32.296875 61.203125 22.5 57.296875 14.90625 
C 53.296875 7.796875 45.796875 1.90625 34.796875 -2.703125 
L 39.703125 -10.59375 
C 50.90625 -6 59.09375 0.40625 64.09375 8.703125 
C 65.796875 11.59375 67.296875 14.90625 68.5 18.59375 
L 68.5 0.296875 
C 68.5 -5.703125 71.296875 -8.796875 77 -8.796875 
z
" id=".PingFang-SC-Medium-89c4"/>
     </defs>
     <g style="fill:#262626;" transform="translate(234.05 133.3425)scale(0.16 -0.16)">
      <use xlink:href="#.PingFang-SC-Medium-5206"/>
      <use x="99.999985" xlink:href="#.PingFang-SC-Medium-7c7b"/>
      <use x="199.999969" xlink:href="#.PingFang-SC-Medium-89c4"/>
      <use x="299.999954" xlink:href="#.PingFang-SC-Medium-683c"/>
     </g>
    </g>
    <g id="line2d_75">
     <path d="M 198 154.11 
L 238 154.11 
" style="fill:none;stroke:#4c72b0;stroke-linecap:round;stroke-width:4.5;"/>
    </g>
    <g id="line2d_76">
     <g>
      <use style="fill:#4c72b0;" x="218" xlink:href="#medca8fbbea" y="154.11"/>
     </g>
    </g>
    <g id="text_40">
     <!-- 25-34克 -->
     <defs>
      <path d="M 5 30.296875 
L 5 21.5 
L 55.5 21.5 
L 55.5 30.296875 
z
" id=".PingFang-SC-Medium-2d"/>
      <path d="M 45.203125 82.203125 
L 45.203125 72.296875 
L 6.90625 72.296875 
L 6.90625 63.09375 
L 45.203125 63.09375 
L 45.203125 54.40625 
L 17.90625 54.40625 
L 17.90625 23.703125 
L 31.90625 23.703125 
C 30.90625 16.703125 28.796875 11.59375 25.5 8.203125 
C 21.296875 3.90625 14.296875 0.203125 4.5 -2.796875 
L 10.59375 -10.59375 
C 21.59375 -6.5 29.59375 -1.703125 34.40625 3.703125 
C 38.09375 8.09375 40.5 14.703125 41.703125 23.703125 
L 56 23.703125 
L 56 2.796875 
C 56 -4.703125 59.5 -8.5 66.59375 -8.5 
L 83 -8.5 
C 86.59375 -8.40625 89.40625 -7.59375 91.5 -6.09375 
C 93.296875 -4.59375 94.703125 0.40625 95.796875 8.90625 
L 86.796875 11.90625 
C 86.40625 6.09375 85.5 2.703125 84.296875 1.90625 
C 83.09375 1.09375 81.90625 0.703125 80.59375 0.703125 
L 69.296875 0.703125 
C 66.59375 0.703125 65.296875 2 65.296875 4.40625 
L 65.296875 23.703125 
L 82 23.703125 
L 82 54.40625 
L 54.796875 54.40625 
L 54.796875 63.09375 
L 93.09375 63.09375 
L 93.09375 72.296875 
L 54.796875 72.296875 
L 54.796875 82.203125 
z
M 72.59375 32.59375 
L 27.296875 32.59375 
L 27.296875 45.40625 
L 72.59375 45.40625 
z
" id=".PingFang-SC-Medium-514b"/>
     </defs>
     <g style="fill:#262626;" transform="translate(254 161.11)scale(0.2 -0.2)">
      <use xlink:href="#.PingFang-SC-Medium-32"/>
      <use x="59.999985" xlink:href="#.PingFang-SC-Medium-35"/>
      <use x="119.999969" xlink:href="#.PingFang-SC-Medium-2d"/>
      <use x="180.499954" xlink:href="#.PingFang-SC-Medium-33"/>
      <use x="240.499939" xlink:href="#.PingFang-SC-Medium-34"/>
      <use x="300.499924" xlink:href="#.PingFang-SC-Medium-514b"/>
     </g>
    </g>
    <g id="line2d_77">
     <path d="M 198 182.669375 
L 238 182.669375 
" style="fill:none;stroke:#55a868;stroke-linecap:round;stroke-width:4.5;"/>
    </g>
    <g id="line2d_78">
     <g>
      <use style="fill:#55a868;" x="218" xlink:href="#m4cacd60f41" y="182.669375"/>
     </g>
    </g>
    <g id="text_41">
     <!-- 35-44克 -->
     <g style="fill:#262626;" transform="translate(254 189.669375)scale(0.2 -0.2)">
      <use xlink:href="#.PingFang-SC-Medium-33"/>
      <use x="59.999985" xlink:href="#.PingFang-SC-Medium-35"/>
      <use x="119.999969" xlink:href="#.PingFang-SC-Medium-2d"/>
      <use x="180.499954" xlink:href="#.PingFang-SC-Medium-34"/>
      <use x="240.499939" xlink:href="#.PingFang-SC-Medium-34"/>
      <use x="300.499924" xlink:href="#.PingFang-SC-Medium-514b"/>
     </g>
    </g>
    <g id="line2d_79">
     <path d="M 198 211.22875 
L 238 211.22875 
" style="fill:none;stroke:#c44e52;stroke-linecap:round;stroke-width:4.5;"/>
    </g>
    <g id="line2d_80">
     <g>
      <use style="fill:#c44e52;" x="218" xlink:href="#maf205efc3b" y="211.22875"/>
     </g>
    </g>
    <g id="text_42">
     <!-- 45-54克 -->
     <g style="fill:#262626;" transform="translate(254 218.22875)scale(0.2 -0.2)">
      <use xlink:href="#.PingFang-SC-Medium-34"/>
      <use x="59.999985" xlink:href="#.PingFang-SC-Medium-35"/>
      <use x="119.999969" xlink:href="#.PingFang-SC-Medium-2d"/>
      <use x="180.499954" xlink:href="#.PingFang-SC-Medium-35"/>
      <use x="240.499939" xlink:href="#.PingFang-SC-Medium-34"/>
      <use x="300.499924" xlink:href="#.PingFang-SC-Medium-514b"/>
     </g>
    </g>
    <g id="line2d_81">
     <path d="M 198 239.788125 
L 238 239.788125 
" style="fill:none;stroke:#8172b2;stroke-linecap:round;stroke-width:4.5;"/>
    </g>
    <g id="line2d_82">
     <g>
      <use style="fill:#8172b2;" x="218" xlink:href="#me0932683de" y="239.788125"/>
     </g>
    </g>
    <g id="text_43">
     <!-- 55-64克 -->
     <g style="fill:#262626;" transform="translate(254 246.788125)scale(0.2 -0.2)">
      <use xlink:href="#.PingFang-SC-Medium-35"/>
      <use x="59.999985" xlink:href="#.PingFang-SC-Medium-35"/>
      <use x="119.999969" xlink:href="#.PingFang-SC-Medium-2d"/>
      <use x="180.499954" xlink:href="#.PingFang-SC-Medium-36"/>
      <use x="240.499939" xlink:href="#.PingFang-SC-Medium-34"/>
      <use x="300.499924" xlink:href="#.PingFang-SC-Medium-514b"/>
     </g>
    </g>
   </g>
  </g>
 </g>
 <defs>
  <clipPath id="p095905f7a2">
   <rect height="652.32" width="1116" x="180" y="103.68"/>
  </clipPath>
 </defs>
</svg>
